<?xml version="1.0" encoding="UTF-8"?>
<svg version="1.1" xmlns="http://www.w3.org/2000/svg" width="500" height="500">
<path d="M0 0 C165 0 330 0 500 0 C500 165 500 330 500 500 C335 500 170 500 0 500 C0 335 0 170 0 0 Z " fill="#1E1F1F" transform="translate(0,0)"/>
<path d="M0 0 C5.97685713 -0.32275334 11.94860005 -0.55781436 17.93212891 -0.71411133 C19.96395211 -0.77927325 21.99517046 -0.86784079 24.02490234 -0.98071289 C40.80152367 -1.88989222 40.80152367 -1.88989222 45.89428711 2.48803711 C48.01025592 5.90059958 49.5068276 9.275954 51 13 C52.21882162 15.1786477 53.47026074 17.33937414 54.75390625 19.48046875 C56.02545846 21.71499702 57.29492382 23.95071386 58.5625 26.1875 C59.96765477 28.65817597 61.37451273 31.12788106 62.78125 33.59765625 C63.13417618 34.21775574 63.48710236 34.83785522 63.85072327 35.47674561 C67.39784056 41.70638085 70.97679664 47.9175022 74.5625 54.125 C75.17681885 55.18871826 75.7911377 56.25243652 76.42407227 57.34838867 C77.66292223 59.49309587 78.90193541 61.6377088 80.14111328 63.78222656 C83.26324605 69.18670645 86.38141204 74.59347412 89.5 80 C90.74998122 82.1666775 91.99998121 84.33334417 93.25 86.5 C100.75 99.5 100.75 99.5 102.62792969 102.75512695 C103.86810761 104.90473634 105.10834127 107.05431358 106.34863281 109.20385742 C109.2735023 114.27309212 112.19780833 119.34264936 115.12011719 124.4133606 C116.49806938 126.80426597 117.87634172 129.19498672 119.25463867 131.58569336 C120.22540982 133.26983963 121.19571874 134.95425231 122.16601562 136.63867188 C122.75576172 137.66154297 123.34550781 138.68441406 123.953125 139.73828125 C124.47036133 140.63587158 124.98759766 141.53346191 125.52050781 142.45825195 C126.25285645 143.71641724 126.25285645 143.71641724 127 145 C127.35779541 145.91894043 127.71559082 146.83788086 128.08422852 147.78466797 C130.35745583 150.41334959 130.94338485 150.38445262 134.2878418 150.65942383 C136.09123429 150.70058291 137.89537293 150.71469959 139.69921875 150.70703125 C141.12449638 150.72971321 141.12449638 150.72971321 142.5785675 150.75285339 C145.61511728 150.79586074 148.65067552 150.80458098 151.6875 150.8125 C153.74546931 150.83563416 155.80341486 150.86099722 157.86132812 150.88867188 C162.90764023 150.95165314 167.95332935 150.98388655 173 151 C162.62068772 132.12778942 162.62068772 132.12778942 151.83911133 113.484375 C148.10951569 107.20805242 144.45685849 100.88865271 140.8125 94.5625 C140.17368896 93.45366455 139.53487793 92.3448291 138.87670898 91.20239258 C137.56805043 88.93042274 136.25953927 86.65836799 134.95117188 84.38623047 C133.05830863 81.10119378 131.16257293 77.81783564 129.265625 74.53515625 C124.15776911 65.69442916 119.05170525 56.85287608 113.9921875 47.984375 C113.65749451 47.39771561 113.32280151 46.81105621 112.97796631 46.20661926 C111.6308091 43.844801 110.28386494 41.48286202 108.93774414 39.12045288 C105.29519128 32.72932872 101.63340128 26.3506154 97.9140625 20.00390625 C97.26574463 18.89740723 96.61742676 17.7909082 95.94946289 16.65087891 C94.71960215 14.55650356 93.48714272 12.46365138 92.25170898 10.37255859 C91.70587158 9.4439502 91.16003418 8.5153418 90.59765625 7.55859375 C90.11820557 6.74704834 89.63875488 5.93550293 89.14477539 5.09936523 C88 3 88 3 87 0 C101.52 0 116.04 0 131 0 C132.85625 3.3 134.7125 6.6 136.625 10 C141.85344714 19.26942546 147.1756669 28.47971427 152.55517578 37.66210938 C157.08915937 45.41186973 161.55555697 53.19873011 166 61 C170.95363554 69.69410256 175.94378504 78.36497459 181 87 C186.0318979 95.5951729 191.00389124 104.22312222 195.9375 112.875 C202.96603507 125.20025196 210.04240434 137.49722067 217.14111328 149.78222656 C220.26324605 155.18670645 223.38141204 160.59347412 226.5 166 C227.74998122 168.1666775 228.99998121 170.33334417 230.25 172.5 C237.75 185.5 245.25 198.5 252.75 211.5 C253.36963623 212.57403076 253.98927246 213.64806152 254.62768555 214.75463867 C255.86875254 216.90583224 257.10980093 219.05703655 258.35083008 221.20825195 C261.26498344 226.25962999 264.17931818 231.3109031 267.09432983 236.36178589 C268.12673478 238.15066918 269.15907956 239.93958717 270.19140625 241.72851562 C271.48685948 243.97337636 272.7824257 246.2181719 274.078125 248.46289062 C275.22270435 250.4464089 276.36407458 252.43178422 277.50146484 254.41943359 C278.4250303 256.00986807 279.36918582 257.58879582 280.34619141 259.14697266 C283.06774457 263.53473537 283.06774457 263.53473537 282.71533203 265.95507812 C281.9916746 268.02379984 281.13702236 269.81912947 280.06640625 271.73046875 C279.66921387 272.44348145 279.27202148 273.15649414 278.86279297 273.89111328 C278.43369629 274.6489209 278.00459961 275.40672852 277.5625 276.1875 C277.12309082 276.97108887 276.68368164 277.75467773 276.23095703 278.56201172 C271.60398143 286.77624849 266.8201576 294.89803297 262 303 C257.90411264 298.34558255 255.10974862 293.0821735 252.125 287.6875 C247.53350368 279.4753591 242.88124822 271.30537799 238.125 263.1875 C231.34708019 251.60851435 224.63631563 239.99173914 217.93945312 228.36572266 C215.91417962 224.8510675 213.88712521 221.33744531 211.859375 217.82421875 C211.51877548 217.23406982 211.17817596 216.6439209 210.82725525 216.03588867 C209.19230093 213.20307244 207.55725345 210.37031 205.92211914 207.53759766 C204.77827071 205.55530409 203.63567234 203.5722884 202.49462891 201.58837891 C201.56706888 199.98204251 200.63304926 198.37939541 199.68896484 196.78271484 C197 192.20923675 197 192.20923675 197 190 C182.48 190 167.96 190 153 190 C155.165625 193.75375 157.33125 197.5075 159.5625 201.375 C201.75 274.50000001 201.75 274.50000001 203.62597656 277.75170898 C204.87270256 279.91268988 206.11944727 282.07365998 207.36621094 284.23461914 C210.54145883 289.73818851 213.71635495 295.24196032 216.890625 300.74609375 C217.53128906 301.85629883 218.17195312 302.96650391 218.83203125 304.11035156 C220.09720296 306.30507661 221.36027135 308.50101567 222.62109375 310.69824219 C225.50284041 315.71364882 228.41152156 320.70506921 231.421875 325.64453125 C232.20546387 326.94596069 232.20546387 326.94596069 233.00488281 328.27368164 C233.96942843 329.87123 234.94706358 331.46098264 235.94042969 333.04077148 C236.36227539 333.74403564 236.78412109 334.4472998 237.21875 335.171875 C237.58935547 335.7709668 237.95996094 336.37005859 238.34179688 336.98730469 C239.61714799 340.88715431 238.40432923 344.15984218 236.68066406 347.74145508 C236.13120117 348.65822021 235.58173828 349.57498535 235.015625 350.51953125 C234.40976562 351.54240234 233.80390625 352.56527344 233.1796875 353.61914062 C232.54289063 354.67294922 231.90609375 355.72675781 231.25 356.8125 C230.00439552 358.90185939 228.75959102 360.99169594 227.515625 363.08203125 C226.62133789 364.57790771 226.62133789 364.57790771 225.70898438 366.10400391 C223.3940943 370.0267505 221.17839495 374.00014734 219 378 C214.66248604 376.55416201 213.70637328 373.28157201 211.6875 369.4375 C210.79155341 367.7786002 209.89297701 366.12111882 208.9921875 364.46484375 C208.50975586 363.57651855 208.02732422 362.68819336 207.53027344 361.77294922 C204.87708925 356.96521693 202.09242958 352.23521152 199.3125 347.5 C194.36747211 339.05781275 189.44771035 330.60195819 184.5625 322.125 C183.94028564 321.04541016 183.31807129 319.96582031 182.67700195 318.85351562 C181.41488483 316.6631748 180.15292215 314.47274498 178.89111328 312.28222656 C175.76319852 306.85340058 172.63141552 301.42680719 169.5 296 C168.24998121 293.83334417 166.99998122 291.6666775 165.75 289.5 C165.13125 288.4275 164.5125 287.355 163.875 286.25 C153.5625 268.375 153.5625 268.375 143.25 250.5 C142.63133057 249.42766113 142.01266113 248.35532227 141.37524414 247.25048828 C140.1243552 245.08223736 138.87354148 242.91394303 137.62280273 240.74560547 C134.51201665 235.35282085 131.39995762 229.96077907 128.28515625 224.5703125 C121.46497363 212.76370516 114.6767674 200.93973 107.92263794 189.09527588 C102.76664555 180.05670572 97.54679327 171.05722862 92.28881836 162.07763672 C87.46127164 153.82076358 82.71451329 145.51905969 77.97949219 137.20898438 C73.36497148 129.11255782 68.70896206 121.04198543 64 113 C58.9681021 104.4048271 53.99610876 95.77687778 49.0625 87.125 C42.03981466 74.81000615 34.96932841 62.52328009 27.87646484 50.24853516 C25.95401712 46.92039446 24.03335754 43.59122808 22.11328125 40.26171875 C21.47213379 39.15006348 20.83098633 38.0384082 20.17041016 36.89306641 C18.9053044 34.6989941 17.6406448 32.50466446 16.37646484 30.31005859 C13.47100751 25.26903208 10.5563363 20.2340275 7.61328125 15.21484375 C7.09540039 14.32917725 6.57751953 13.44351074 6.04394531 12.53100586 C5.08211292 10.88774342 4.11681477 9.24650284 3.14746094 7.60766602 C0 2.22318174 0 2.22318174 0 0 Z " fill="#17DF5B" transform="translate(45,66)"/>
<path d="M0 0 C72.27 0 144.54 0 219 0 C224.28 9.24 229.56 18.48 235 28 C236.65 30.64 238.3 33.28 240 36 C239.96427382 39.84004429 238.35121486 42.49770975 236.40234375 45.75390625 C235.85642578 46.67623047 235.31050781 47.59855469 234.74804688 48.54882812 C234.15056641 49.54333984 233.55308594 50.53785156 232.9375 51.5625 C231.65366966 53.72971204 230.37117043 55.89771303 229.08984375 58.06640625 C228.41808105 59.20094238 227.74631836 60.33547852 227.05419922 61.50439453 C223.98204525 66.71490322 220.99540439 71.97422492 218.00540161 77.23214722 C212.72356086 86.51949743 207.39876758 95.77996177 202 105 C196.9681021 113.5951729 191.99610876 122.22312222 187.0625 130.875 C180.03396493 143.20025196 172.95759566 155.49722067 165.85888672 167.78222656 C163.36212196 172.10418079 160.86796327 176.42763592 158.37402344 180.7512207 C157.13399471 182.90091616 155.89376343 185.0504948 154.65332031 187.19995117 C151.71777623 192.28686066 148.78365268 197.37457589 145.85409546 202.4649353 C144.46671905 204.87543748 143.07860376 207.28551376 141.69042969 209.69555664 C140.70826185 211.40143968 139.72716615 213.10793986 138.74609375 214.81445312 C138.153125 215.84376953 137.56015625 216.87308594 136.94921875 217.93359375 C136.42674561 218.84165771 135.90427246 219.74972168 135.3659668 220.68530273 C134.30022034 222.49126201 133.16319248 224.25521129 132 226 C128.22983584 224.74327861 127.99288597 223.70437669 126.13671875 220.27734375 C125.58701416 219.27646729 125.03730957 218.27559082 124.47094727 217.24438477 C123.88240967 216.15311279 123.29387207 215.06184082 122.6875 213.9375 C121.4211316 211.63178953 120.15285461 209.32712644 118.8828125 207.0234375 C118.39751823 206.1402459 118.39751823 206.1402459 117.90242004 205.23921204 C114.71876177 199.45653569 111.40554125 193.75404915 108.0625 188.0625 C106.89562073 186.07173919 105.72895613 184.08085253 104.5625 182.08984375 C103.97855469 181.0932373 103.39460938 180.09663086 102.79296875 179.06982422 C99.69562962 173.7667275 96.62886142 168.44605065 93.5625 163.125 C92.93996338 162.04484619 92.31742676 160.96469238 91.67602539 159.85180664 C90.41423174 157.66203666 89.15259466 155.47217645 87.89111328 153.28222656 C84.76319852 147.85340058 81.63141552 142.42680719 78.5 137 C77.24998121 134.83334417 75.99998122 132.6666775 74.75 130.5 C74.13125 129.4275 73.5125 128.355 72.875 127.25 C37.25 65.5 37.25 65.5 35.37402344 62.24829102 C34.12729744 60.08731012 32.88055273 57.92634002 31.63378906 55.76538086 C28.45854117 50.26181149 25.28364505 44.75803968 22.109375 39.25390625 C21.4687915 38.14329834 20.82820801 37.03269043 20.16821289 35.88842773 C18.90413059 33.69667602 17.6402901 31.50478483 16.37670898 29.31274414 C13.4647286 24.26301115 10.54712017 19.2167572 7.61328125 14.1796875 C7.09540039 13.28950928 6.57751953 12.39933105 6.04394531 11.48217773 C5.08031771 9.82695518 4.11491699 8.17276319 3.14746094 6.51977539 C0 1.11106124 0 1.11106124 0 0 Z " fill="#17DF5B" transform="translate(215,66)"/>
<path d="M0 0 C3.43861236 4.00652798 5.89004043 8.19287901 8.375 12.8125 C12.3428565 20.07018999 16.43894377 27.24104173 20.625 34.375 C25.80840983 43.2172455 30.92702489 52.09413749 36 61 C40.95348205 69.69418741 45.94369473 78.36503119 51 87 C56.4035646 96.22800529 61.72652361 105.4999467 67.02050781 114.79101562 C71.63502804 122.88744133 76.29095255 130.95806509 81 139 C86.39983589 148.22163754 91.71978897 157.48682369 97.00942993 166.7718811 C102.41058807 176.25042429 107.87479766 185.69065521 113.39648438 195.09960938 C116.6743916 200.69226608 119.88119738 206.31698441 123 212 C123.66 212 124.32 212 125 212 C125.83917969 210.46859375 125.83917969 210.46859375 126.6953125 208.90625 C132.12177397 199.04898688 137.71307572 189.29923061 143.40283203 179.59179688 C147.98888267 171.75806111 152.50720288 163.88738504 157 156 C162.68914367 146.01436942 168.43891137 136.0660593 174.24267578 126.14648438 C178.54453118 118.79198311 182.79808667 111.41207071 187 104 C193.94818796 116.70525799 196.56313423 131.89426653 199 146 C199.17724609 146.91185059 199.35449219 147.82370117 199.53710938 148.76318359 C200.079968 152.55918552 200.16212221 156.29154224 200.16796875 160.1171875 C200.17129715 160.8920047 200.17462555 161.6668219 200.17805481 162.46511841 C200.1831009 164.10401826 200.18546385 165.74292832 200.18530273 167.38183594 C200.18746287 169.83286615 200.20556952 172.28342583 200.22460938 174.734375 C200.27342504 188.00720431 199.59027902 201.20114548 195.75 214 C195.4257605 215.11544189 195.4257605 215.11544189 195.0949707 216.25341797 C186.91144876 243.75355268 173.23778173 268.67998167 153.875 289.875 C153.40860107 290.38627441 152.94220215 290.89754883 152.46166992 291.42431641 C128.47696217 317.08624734 94.58440759 335.00016624 60 341 C58.33389296 341.04318695 56.66566215 341.05785664 55 341 C55.44472656 340.27554687 55.88945312 339.55109375 56.34765625 338.8046875 C56.91355469 337.83789062 57.47945313 336.87109375 58.0625 335.875 C58.63097656 334.92367188 59.19945312 333.97234375 59.78515625 332.9921875 C61.25599811 329.36947088 60.89175548 327.76401024 60 324 C58.88771182 321.52001142 58.88771182 321.52001142 57.40234375 319.1484375 C56.85642578 318.22933594 56.31050781 317.31023437 55.74804688 316.36328125 C55.15056641 315.37714844 54.55308594 314.39101563 53.9375 313.375 C52.65358399 311.21695671 51.37108843 309.05806784 50.08984375 306.8984375 C49.41808105 305.77018555 48.74631836 304.64193359 48.05419922 303.47949219 C44.97274052 298.28006748 41.99147727 293.02342782 39.00540161 287.76885986 C33.72569731 278.47997776 28.39899631 269.22020374 23 260 C17.9436896 251.36502242 12.9540587 242.69386405 8 234 C2.91611727 225.08003548 -2.19876854 216.17933757 -7.375 207.3125 C-8.22989014 205.84756104 -8.22989014 205.84756104 -9.10205078 204.35302734 C-11.74882446 199.8252665 -14.40849346 195.30583408 -17.09375 190.80078125 C-17.80265381 189.60811646 -17.80265381 189.60811646 -18.52587891 188.39135742 C-19.39918776 186.924306 -20.27622884 185.4594672 -21.15771484 183.99731445 C-24 179.22205759 -24 179.22205759 -24 177 C-9.48 177 5.04 177 20 177 C24.95 185.91 24.95 185.91 30 195 C32.21483257 198.84331346 34.43728936 202.67784714 36.6875 206.5 C37.89116363 208.55437201 39.09426893 210.60907123 40.296875 212.6640625 C41.21049805 214.22495605 41.21049805 214.22495605 42.14257812 215.81738281 C45.25997214 221.15891126 48.34936881 226.51651603 51.4375 231.875 C52.3653833 233.48459595 52.3653833 233.48459595 53.31201172 235.12670898 C55.86229575 239.55185182 58.41134729 243.97770354 60.95996094 248.40380859 C68.58103863 261.63773256 76.22103533 274.85812556 84 288 C87.04563661 285.34335531 88.74973949 282.18610273 90.72265625 278.6875 C91.06880478 278.07737061 91.41495331 277.46724121 91.77159119 276.83862305 C92.87318268 274.89498717 93.96807428 272.94767823 95.0625 271 C96.16179136 269.05308258 97.26245607 267.10695249 98.36412048 265.16137695 C99.36249341 263.39674447 100.35724171 261.63006276 101.35180664 259.86328125 C102.50016741 257.86832122 103.72315317 255.91527025 105 254 C104.66673297 250.04209623 103.17936367 247.19594363 101.18359375 243.80859375 C100.59247803 242.79587402 100.0013623 241.7831543 99.39233398 240.73974609 C98.74723877 239.65000488 98.10214355 238.56026367 97.4375 237.4375 C96.76096765 236.28255104 96.085284 235.12710457 95.41040039 233.97119141 C94.35332223 232.16067827 93.29581572 230.35043556 92.23582458 228.54162598 C88.75514104 222.59936138 85.34326328 216.61879768 81.9380188 210.63308716 C76.11992362 200.40967264 70.23262979 190.22850314 64.28881836 180.07763672 C59.46127164 171.82076358 54.71451329 163.51905969 49.97949219 155.20898438 C45.36497196 147.11255867 40.70904745 139.04193491 36 131 C30.5964354 121.77199471 25.27347639 112.5000533 19.97949219 103.20898438 C15.36497148 95.11255782 10.70896206 87.04198543 6 79 C0.28769889 69.24260494 -5.33934355 59.43809025 -10.93798828 49.61523438 C-14.36920286 43.59659109 -17.81054828 37.58417218 -21.27734375 31.5859375 C-21.62387497 30.98629181 -21.97040619 30.38664612 -22.32743835 29.76882935 C-23.98459848 26.90226729 -25.64358338 24.03678459 -27.30444336 21.17236328 C-27.89233643 20.1564209 -28.48022949 19.14047852 -29.0859375 18.09375 C-29.6020459 17.20365234 -30.1181543 16.31355469 -30.64990234 15.39648438 C-31.83572544 13.29159477 -32.94359341 11.17209809 -34 9 C-22.74738235 5.49143041 -11.59552982 2.18856026 0 0 Z " fill="#333434" transform="translate(222,79)"/>
<path d="M0 0 C2.41793676 3.07546589 4.37498851 6.26860771 6.30078125 9.671875 C6.94080078 10.79851562 7.58082031 11.92515625 8.24023438 13.0859375 C8.57756592 13.68245117 8.91489746 14.27896484 9.26245117 14.89355469 C11.0608692 18.07308752 12.86847806 21.24738676 14.67578125 24.421875 C15.04212677 25.06572144 15.40847229 25.70956787 15.78591919 26.3729248 C19.14748963 32.27393994 22.56594898 38.14088964 26 44 C31.40397237 53.2277636 36.72652611 62.49995109 42.02050781 71.79101562 C46.63502852 79.88744218 51.29103794 87.95801457 56 96 C61.0318979 104.5951729 66.00389124 113.22312222 70.9375 121.875 C77.96603507 134.20025196 85.04240434 146.49722067 92.14111328 158.78222656 C95.26324605 164.18670645 98.38141204 169.59347412 101.5 175 C102.74998122 177.1666775 103.99998121 179.33334417 105.25 181.5 C112.75 194.5 112.75 194.5 114.6262207 197.75219727 C115.8720577 199.91159395 117.11798818 202.07093669 118.36401367 204.23022461 C121.55348953 209.75767597 124.74116885 215.28615121 127.92578125 220.81640625 C129.22131657 223.06512583 130.51688896 225.31382405 131.8125 227.5625 C132.43326416 228.64080078 133.05402832 229.71910156 133.69360352 230.83007812 C136.4911637 235.68241733 139.30120151 240.52569306 142.1640625 245.33984375 C142.63739014 246.13640381 143.11071777 246.93296387 143.59838867 247.75366211 C144.4642552 249.2061394 145.33395536 250.65634118 146.20825195 252.10375977 C149 256.78197057 149 256.78197057 149 259 C106.05822025 261.10041314 64.36951349 242.82858973 32.82177734 214.43115234 C27.52497993 209.5733413 22.50100045 204.61602102 18 199 C17.2678125 198.11699219 16.535625 197.23398437 15.78125 196.32421875 C-8.36954675 166.25036267 -22.68756879 128.6572095 -22.39111328 89.98876953 C-22.37500693 87.50107037 -22.39108442 85.01499485 -22.41015625 82.52734375 C-22.43003968 68.00312441 -20.21766632 54.26491343 -16.375 40.25 C-16.1270166 39.34169434 -15.8790332 38.43338867 -15.62353516 37.49755859 C-11.88079838 24.42163955 -6.14714821 12.09959036 0 0 Z " fill="#333434" transform="translate(100,163)"/>
<path d="M0 0 C42.9 0 85.8 0 130 0 C125.70146306 8.59707388 121.45633184 16.90520706 116.5625 25.125 C115.3334578 27.21024386 114.10564388 29.29621204 112.87890625 31.3828125 C112.24484863 32.46079102 111.61079102 33.53876953 110.95751953 34.64941406 C107.59355262 40.40734396 104.29870788 46.20454997 101 52 C95.987661 60.80052798 90.932096 69.57375558 85.8125 78.3125 C79.08108801 89.80355469 72.51775476 101.38666523 66 113 C65.34 113 64.68 113 64 113 C63.64921387 112.36835938 63.29842773 111.73671875 62.93701172 111.0859375 C55.28873619 97.33043839 47.51566941 83.66157746 39.55859375 70.08203125 C35.8890789 63.81905515 32.25203701 57.53765488 28.625 51.25 C28.01229248 50.1880542 27.39958496 49.1261084 26.76831055 48.03198242 C23.38885839 42.16726419 20.02349569 36.29471388 16.671875 30.4140625 C16.31173309 29.78246216 15.95159119 29.15086182 15.58053589 28.50012207 C13.83989975 25.447056 12.10109574 22.39297479 10.36572266 19.33691406 C7.67202277 14.60688478 4.97513799 9.90471107 2.0390625 5.3203125 C0 2 0 2 0 0 Z " fill="#333434" transform="translate(281,104)"/>
<path d="M0 0 C2.41793676 3.07546589 4.37498851 6.26860771 6.30078125 9.671875 C6.94080078 10.79851562 7.58082031 11.92515625 8.24023438 13.0859375 C8.57756592 13.68245117 8.91489746 14.27896484 9.26245117 14.89355469 C11.0608692 18.07308752 12.86847806 21.24738676 14.67578125 24.421875 C15.04212677 25.06572144 15.40847229 25.70956787 15.78591919 26.3729248 C19.14748963 32.27393994 22.56594898 38.14088964 26 44 C31.39914061 53.21951293 36.72142776 62.48103753 42.00540161 71.7668457 C45.66104539 78.19095041 49.33723748 84.60069088 53.08984375 90.96875 C53.73759766 92.06960937 54.38535156 93.17046875 55.05273438 94.3046875 C56.28007012 96.38543493 57.51163101 98.46369778 58.74804688 100.5390625 C59.29396484 101.46460938 59.83988281 102.39015625 60.40234375 103.34375 C60.88179443 104.15005859 61.36124512 104.95636719 61.85522461 105.78710938 C62.94182996 107.88755528 63.47323015 109.71109599 64 112 C58.02314287 112.32275334 52.05139995 112.55781436 46.06787109 112.71411133 C44.03604789 112.77927325 42.00482954 112.86784079 39.97509766 112.98071289 C23.19847633 113.88989222 23.19847633 113.88989222 18.10571289 109.51196289 C15.98974408 106.09940042 14.4931724 102.724046 13 99 C11.78117838 96.8213523 10.52973926 94.66062586 9.24609375 92.51953125 C7.97453946 90.28500416 6.70507216 88.04928842 5.4375 85.8125 C4.0375546 83.35093802 2.63590707 80.89034633 1.234375 78.4296875 C0.88227463 77.81103317 0.53017426 77.19237885 0.16740417 76.55497742 C-3.46886095 70.16878776 -7.13741358 63.80143154 -10.8125 57.4375 C-11.42625488 56.3745874 -12.04000977 55.3116748 -12.67236328 54.21655273 C-18.10814521 44.80712233 -23.55137262 35.40199736 -29 26 C-23.00304239 18.64988272 -16.02683752 12.95734266 -8.625 7.0625 C-8.00568604 6.56532471 -7.38637207 6.06814941 -6.74829102 5.5559082 C-2.23452054 2 -2.23452054 2 0 2 C0 1.34 0 0.68 0 0 Z " fill="#333534" transform="translate(154,105)"/>
<path d="M0 0 C22.44 0 44.88 0 68 0 C63.45212531 9.09574937 58.88593992 17.9441737 53.75 26.6875 C53.13898438 27.74388672 52.52796875 28.80027344 51.8984375 29.88867188 C51.30804688 30.89865234 50.71765625 31.90863281 50.109375 32.94921875 C49.58311523 33.84987061 49.05685547 34.75052246 48.51464844 35.6784668 C47.16086921 37.75343241 45.8272206 39.34258655 44 41 C43.154375 40.01 42.30875 39.02 41.4375 38 C29.45613021 24.02675183 17.13757814 11.87564007 1.4765625 2.0234375 C0.98929687 1.68570313 0.50203125 1.34796875 0 1 C0 0.67 0 0.34 0 0 Z " fill="#090A09" transform="translate(343,104)"/>
</svg>
