<?xml version="1.0" encoding="UTF-8"?>
<svg version="1.1" xmlns="http://www.w3.org/2000/svg" width="500" height="500">
<path d="M0 0 C165 0 330 0 500 0 C500 165 500 330 500 500 C335 500 170 500 0 500 C0 335 0 170 0 0 Z " fill="#1D1D1D" transform="translate(0,0)"/>
<path d="M0 0 C1.16165176 -0.01455482 1.16165176 -0.01455482 2.34677124 -0.02940369 C4.84451521 -0.05426532 7.34198848 -0.06692356 9.83984375 -0.07421875 C10.69160187 -0.07683716 11.54335999 -0.07945557 12.42092896 -0.08215332 C25.93622397 -0.08660715 38.63411113 0.90561665 51.77734375 4.23828125 C53.15193773 4.55515194 54.52692261 4.87033294 55.90234375 5.18359375 C74.65443008 9.75633611 98.45727464 19.01853772 112.421875 32.859375 C118.14083043 38.41582676 118.14083043 38.41582676 125.67089844 40.39257812 C129.02126547 40.24845449 132.36703954 40.05760727 135.71484375 39.86328125 C146.70941053 39.39085846 146.70941053 39.39085846 151.30957031 43.50048828 C157.37913847 51.40371053 162.71545864 61.20702413 163.77734375 71.23828125 C162.74609375 73.65234375 162.74609375 73.65234375 161.27734375 75.86328125 C159.26493396 78.75203702 159.26493396 78.75203702 158.8984375 82.109375 C159.86849866 84.4590787 161.04462909 86.64751932 162.3034668 88.85424805 C171.36399545 104.7790076 177.21624894 122.30340696 180.77734375 140.23828125 C180.96425781 141.17567139 181.15117187 142.11306152 181.34375 143.07885742 C182.88731756 151.79084581 183.08480136 160.33065801 183.03808594 169.14819336 C183.02740444 171.53720751 183.03802295 173.9254622 183.05078125 176.31445312 C183.0639836 189.45434563 182.32727404 202.57390068 178.52734375 215.23828125 C178.31118408 215.98190918 178.09502441 216.72553711 177.87231445 217.49169922 C169.68879251 244.99183393 156.01512548 269.91826292 136.65234375 291.11328125 C136.18594482 291.62455566 135.7195459 292.13583008 135.23901367 292.66259766 C108.09269088 321.70723176 66.77304014 342.21332437 26.77201843 344.34515381 C24.56761273 344.40212107 22.36526546 344.42913383 20.16015625 344.44140625 C19.34473358 344.44710632 18.52931091 344.4528064 17.68917847 344.4586792 C15.96630123 344.46808474 14.24340637 344.47464539 12.52050781 344.47851562 C9.94432058 344.48812468 7.36896602 344.51914966 4.79296875 344.55078125 C-40.87287368 344.8412691 -81.9206227 323.39159384 -114.22265625 292.23828125 C-116.70810483 289.67871392 -118.98661379 287.01714917 -121.22265625 284.23828125 C-121.95613281 283.35398437 -122.68960938 282.4696875 -123.4453125 281.55859375 C-140.57419349 260.22214294 -151.89921033 235.78621505 -158.22265625 209.23828125 C-158.48949219 208.16368652 -158.48949219 208.16368652 -158.76171875 207.06738281 C-164.47228497 183.03541662 -163.25000313 154.01337054 -157.22265625 130.23828125 C-156.95775391 129.169729 -156.95775391 129.169729 -156.6875 128.07958984 C-151.92885389 109.59577463 -143.33983065 92.31999729 -133.22265625 76.23828125 C-132.29021368 74.74488588 -131.35791993 73.25139757 -130.42578125 71.7578125 C-129.69160693 70.58450982 -128.95730778 69.41128519 -128.22265625 68.23828125 C-128.49940186 67.74013916 -128.77614746 67.24199707 -129.0612793 66.72875977 C-133.78173828 58.23193359 -138.50219727 49.73510742 -143.22265625 41.23828125 C-138.55960587 41.16422238 -133.89689641 41.10972362 -129.23339844 41.07348633 C-127.64642374 41.05838311 -126.05949088 41.03789902 -124.47265625 41.01196289 C-122.19390552 40.9756453 -119.91570567 40.95857102 -117.63671875 40.9453125 C-116.9252066 40.92982864 -116.21369446 40.91434479 -115.48062134 40.89839172 C-113.47900391 40.89770508 -113.47900391 40.89770508 -110.22265625 41.23828125 C-109.56265625 42.22828125 -108.90265625 43.21828125 -108.22265625 44.23828125 C-104.59187549 43.65606251 -102.900171 42.26796922 -100.28515625 39.73828125 C-74.0873324 15.83701988 -35.47553856 0.37017825 0 0 Z " fill="#333434" transform="translate(239.22265625,77.76171875)"/>
<path d="M0 0 C27.85824319 -3.44523807 27.85824319 -3.44523807 35.59716797 1.74023438 C39.91708549 6.68281364 42.22120324 12.67556185 44.61132812 18.72363281 C47.00222711 24.36460756 50.23342571 29.50238679 53.375 34.75 C54.64756654 36.9506225 55.9157733 39.15377171 57.1796875 41.359375 C60.94717572 47.90968887 64.7227978 54.45528408 68.5 61 C72.00649808 67.0771309 75.51274702 73.15440474 79.01696777 79.23284912 C80.02619104 80.98341241 81.03553836 82.73390411 82.04492188 84.484375 C83.3016766 86.66392165 84.55820586 88.84359832 85.81445312 91.0234375 C86.9675677 93.02302836 88.13649142 95.01359643 89.32202148 96.99414062 C91 100 91 100 92.41430664 103.39648438 C93.98234875 106.8708992 95.27312741 109.32540336 98 112 C103.55211681 113.47450661 108.75367157 113.14442606 114.4375 112.75 C115.94705351 112.68974097 117.45683797 112.63499931 118.96679688 112.5859375 C122.64936449 112.45431492 126.32320589 112.24772388 130 112 C129.45214844 111.07445312 128.90429688 110.14890625 128.33984375 109.1953125 C121.12403081 96.97902682 114.03580204 84.69023913 106.95556641 72.39501953 C103.18741961 65.85321562 99.41326041 59.31487868 95.6394043 52.77636719 C92.43533648 47.22427061 89.23448128 41.6703608 86.0390625 36.11328125 C84.73455203 33.84625229 83.42986738 31.57932355 82.125 29.3125 C81.50165771 28.22904297 80.87831543 27.14558594 80.23608398 26.02929688 C76.39015037 19.36074932 72.49542782 12.72612014 68.43603516 6.18481445 C66 2.21145814 66 2.21145814 66 0 C76.89 0 87.78 0 99 0 C101.10375 3.774375 103.2075 7.54875 105.375 11.4375 C109.87078183 19.48023645 114.40894047 27.48971362 119.11010742 35.4140625 C122.85224409 41.72671477 126.52381678 48.07903766 130.1875 54.4375 C130.82550537 55.54472412 131.46351074 56.65194824 132.12084961 57.79272461 C133.42889477 60.06337068 134.73675448 62.33412358 136.04443359 64.60498047 C139.19332054 70.0716998 142.34683264 75.53574887 145.5 81 C146.7500235 83.16665311 148.00002347 85.33331979 149.25 87.5 C150.178125 89.10875 150.178125 89.10875 151.125 90.75 C171.75 126.5 171.75 126.5 173.62524414 129.75048828 C174.87435518 131.91557071 176.12354129 134.08060982 177.37280273 136.24560547 C180.51202309 141.68615706 183.64990563 147.12747216 186.78515625 152.5703125 C187.41035156 153.65473633 188.03554688 154.73916016 188.6796875 155.85644531 C189.92521857 158.01868208 191.16874126 160.18207712 192.41015625 162.34667969 C195.57631489 167.85559449 198.78996264 173.32778719 202.08984375 178.7578125 C202.745896 179.84819824 203.40194824 180.93858398 204.07788086 182.06201172 C205.32907355 184.13721484 206.59358241 186.20446628 207.87329102 188.26220703 C208.43072998 189.19145996 208.98816895 190.12071289 209.5625 191.078125 C210.05878906 191.88668945 210.55507813 192.69525391 211.06640625 193.52832031 C212.30719235 196.81328852 211.93572164 198.63398265 211 202 C209.60131836 204.88427734 209.60131836 204.88427734 207.83984375 207.8359375 C207.21142578 208.89941406 206.58300781 209.96289062 205.93554688 211.05859375 C205.27619141 212.15300781 204.61683594 213.24742187 203.9375 214.375 C203.27427734 215.49261719 202.61105469 216.61023438 201.92773438 217.76171875 C200.29347424 220.51291926 198.65071466 223.25865159 197 226 C194.01114732 223.22262654 191.98949092 220.56071009 190.0390625 216.984375 C189.49258057 215.9931665 188.94609863 215.00195801 188.38305664 213.98071289 C187.80289795 212.91457764 187.22273926 211.84844238 186.625 210.75 C185.36768476 208.47166234 184.10852346 206.19434262 182.84765625 203.91796875 C182.52721848 203.33844955 182.2067807 202.75893036 181.87663269 202.16184998 C178.69025433 196.41185144 175.38911507 190.73215558 172.0625 185.0625 C170.91272895 183.09897676 169.76298977 181.13543485 168.61328125 179.171875 C168.03143066 178.17865234 167.44958008 177.18542969 166.85009766 176.16210938 C163.80848532 170.96351304 160.77649169 165.7594287 157.75680542 160.54806519 C156.77271295 158.85165334 155.78495847 157.15736751 154.79711914 155.46313477 C154.19891357 154.42987061 153.60070801 153.39660645 152.984375 152.33203125 C152.45553711 151.42171143 151.92669922 150.5113916 151.38183594 149.57348633 C150 147 150 147 148 142 C132.16 142.495 132.16 142.495 116 143 C124.01161589 157.38820812 132.11091697 171.70238223 140.4375 185.91015625 C144.13213349 192.21570485 147.78844812 198.54298913 151.4375 204.875 C152.05351074 205.94355225 152.66952148 207.01210449 153.30419922 208.11303711 C155.87879544 212.5802062 158.45211315 217.04811045 161.02441406 221.51660156 C162.38115258 223.87346291 163.73833221 226.23006924 165.09594727 228.58642578 C166.36546119 230.79006869 167.63423268 232.99413955 168.90209961 235.19873047 C169.4822583 236.20564941 170.06241699 237.21256836 170.66015625 238.25 C171.21203613 239.21550781 171.76391602 240.18101562 172.33251953 241.17578125 C173.45441532 243.0759409 174.62357956 244.94888936 175.83544922 246.79296875 C176.40408691 247.66566406 176.97272461 248.53835938 177.55859375 249.4375 C178.07607178 250.19933594 178.5935498 250.96117187 179.12670898 251.74609375 C180 254 180 254 179.35620117 256.42651367 C177.87520349 259.23681009 176.35302903 261.99985065 174.7421875 264.73828125 C174.11699219 265.80498047 173.49179687 266.87167969 172.84765625 267.97070312 C171.87119141 269.62489258 171.87119141 269.62489258 170.875 271.3125 C170.21628906 272.43462891 169.55757812 273.55675781 168.87890625 274.71289062 C167.2556763 277.47708656 165.62927846 280.23936632 164 283 C161.1544796 279.59166354 158.81788398 276.16533016 156.63671875 272.30078125 C156.00491699 271.18735352 155.37311523 270.07392578 154.72216797 268.92675781 C154.3910199 268.3385022 154.05987183 267.75024658 153.71868896 267.14416504 C152.30598842 264.63483426 150.88349907 262.13109703 149.46179199 259.62686157 C148.72633654 258.33106981 147.99139607 257.03498562 147.25695801 255.73861694 C143.66042237 249.39130314 140.02336612 243.06765637 136.375 236.75 C135.7577002 235.68031982 135.14040039 234.61063965 134.50439453 233.50854492 C130.37919812 226.3676989 126.22585754 219.24364533 122.0625 212.125 C116.64050983 202.8543033 111.29676047 193.54063405 105.97976685 184.20953369 C101.36515971 176.11292157 96.70915114 168.04211199 92 160 C86.94369077 151.36502443 81.95392878 142.69393681 77 134 C71.46014067 124.27875494 65.86625068 114.59105132 60.21655273 104.93310547 C54.06067867 94.40632549 47.97336113 83.84035066 41.88671875 73.2734375 C40.0203162 70.0352484 38.15126237 66.79860562 36.28125 63.5625 C31.10803167 54.60804289 25.93626205 45.65306897 20.81640625 36.66796875 C20.468022 36.05665604 20.11963776 35.44534332 19.76069641 34.81550598 C16.97309642 29.92369074 16.97309642 29.92369074 15.60183716 27.51602173 C11.29101602 19.95077538 6.93857057 12.41768633 2.38525391 4.99536133 C0 1.09508455 0 1.09508455 0 0 Z " fill="#17DF5B" transform="translate(96,119)"/>
<path d="M0 0 C21.1395791 -0.56189793 42.27791983 -0.9844476 63.42346382 -1.24349213 C73.24335154 -1.36700196 83.05858811 -1.53517758 92.87548828 -1.81054688 C101.43747623 -2.05059966 109.996097 -2.20477651 118.56135643 -2.25812387 C123.0943645 -2.2892989 127.61774648 -2.36185281 132.14764786 -2.53752136 C159.615235 -3.5625593 159.615235 -3.5625593 166.92128754 2.37350464 C173.47441258 10.16124634 177.87122917 19.84729127 179 30 C177.86694336 32.87060547 177.86694336 32.87060547 176.08984375 35.8671875 C175.43693359 36.98738281 174.78402344 38.10757813 174.11132812 39.26171875 C173.38696599 40.46629454 172.66235006 41.67071775 171.9375 42.875 C171.19697908 44.13318092 170.45806698 45.39231001 169.72070312 46.65234375 C168.21564948 49.21852582 166.70169186 51.77908729 165.17919922 54.33496094 C162.65130195 58.57990223 160.16327929 62.84768149 157.67797852 67.11767578 C156.55175819 69.05222506 155.42330945 70.98547864 154.29272461 72.91748047 C149.80893971 80.58173478 145.39586042 88.28515981 141 96 C136.04621212 104.69401625 131.05628368 113.36501196 126 122 C118.77392815 134.34114469 111.68351036 146.75822788 104.60449219 159.18408203 C102.73920322 162.45770391 100.8703471 165.72926612 99 169 C98.34 169 97.68 169 97 169 C33.25 58.5 33.25 58.5 31.37304688 55.24658203 C30.1295949 53.09128689 28.88610564 50.93601327 27.64257812 48.78076172 C24.75537125 43.77662326 21.8684957 38.7722948 18.98303223 33.76715088 C17.97380896 32.01658759 16.96446164 30.26609589 15.95507812 28.515625 C14.6983234 26.33607835 13.44179414 24.15640168 12.18554688 21.9765625 C11.60869141 20.97625 11.03183594 19.9759375 10.4375 18.9453125 C9.87804687 17.9749707 9.31859375 17.00462891 8.7421875 16.00488281 C6.2785969 11.7557414 3.78355988 7.52514078 1.28515625 3.29638672 C0 1 0 1 0 0 Z " fill="#17DF5B" transform="translate(224,119)"/>
<path d="M0 0 C32.01 0 64.02 0 97 0 C95.53195771 4.40412687 94.32284118 7.47882978 92.05078125 11.359375 C91.4578125 12.37902344 90.86484375 13.39867187 90.25390625 14.44921875 C89.61324219 15.53847656 88.97257812 16.62773437 88.3125 17.75 C87.63743361 18.90720972 86.96296538 20.06476857 86.2890625 21.22265625 C84.88984195 23.62570582 83.48807065 26.0272392 82.08447266 28.42773438 C78.86550638 33.93786806 75.68479328 39.47007144 72.5 45 C71.26971037 47.13291583 70.03924034 49.26572761 68.80859375 51.3984375 C68.19226074 52.46674805 67.57592773 53.53505859 66.94091797 54.63574219 C61.29394531 64.42382812 55.64697266 74.21191406 50 84 C46.22983584 82.74327861 45.99288597 81.70437669 44.13671875 78.27734375 C43.58709473 77.27662842 43.0374707 76.27591309 42.47119141 75.24487305 C41.88257324 74.15343994 41.29395508 73.06200684 40.6875 71.9375 C39.41983071 69.62915499 38.15044067 67.32183508 36.87890625 65.015625 C36.55517029 64.42641769 36.23143433 63.83721039 35.89788818 63.23014832 C32.73817625 57.49104856 29.44572654 51.83445225 26.125 46.1875 C21.16682899 37.73223755 16.25135571 29.25398846 11.38348389 20.74649048 C10.67726027 19.51240023 9.97044573 18.27864793 9.26300049 17.04525757 C8.27385404 15.3202308 7.28727278 13.59373391 6.30078125 11.8671875 C5.73528564 10.87831543 5.16979004 9.88944336 4.5871582 8.87060547 C2.97645262 5.95741116 1.48869564 2.97739128 0 0 Z " fill="#333434" transform="translate(273,147)"/>
</svg>
